<mxfile host="app.diagrams.net" modified="2023-11-18T16:21:53.411Z" agent="Mozilla/5.0 (Windows NT 10.0; Win64; x64; rv:109.0) Gecko/20100101 Firefox/119.0" etag="po6qSt1XDOijJlaTY864" version="22.1.3" type="device">
  <diagram name="Page-1" id="dAjCDETQ3B6Sjateg3Hk">
    <mxGraphModel dx="1481" dy="816" grid="1" gridSize="10" guides="1" tooltips="1" connect="1" arrows="1" fold="1" page="1" pageScale="1" pageWidth="850" pageHeight="1100" math="0" shadow="0">
      <root>
        <mxCell id="0" />
        <mxCell id="1" parent="0" />
        <mxCell id="gYdATXDG7kGbHXDYzB5d-3" value="" style="rounded=0;whiteSpace=wrap;html=1;fillColor=none;" vertex="1" parent="1">
          <mxGeometry x="290" y="290" width="630" height="710" as="geometry" />
        </mxCell>
        <mxCell id="gYdATXDG7kGbHXDYzB5d-5" style="edgeStyle=orthogonalEdgeStyle;rounded=0;orthogonalLoop=1;jettySize=auto;html=1;exitX=1.007;exitY=0.606;exitDx=0;exitDy=0;exitPerimeter=0;" edge="1" parent="1" source="gYdATXDG7kGbHXDYzB5d-1" target="gYdATXDG7kGbHXDYzB5d-4">
          <mxGeometry relative="1" as="geometry">
            <mxPoint x="20" y="360" as="sourcePoint" />
          </mxGeometry>
        </mxCell>
        <mxCell id="gYdATXDG7kGbHXDYzB5d-6" value="Upload &lt;br&gt;Geo-Tagged &lt;br&gt;Image" style="edgeLabel;html=1;align=center;verticalAlign=middle;resizable=0;points=[];" vertex="1" connectable="0" parent="gYdATXDG7kGbHXDYzB5d-5">
          <mxGeometry x="-0.2527" y="-5" relative="1" as="geometry">
            <mxPoint x="-9" y="-5" as="offset" />
          </mxGeometry>
        </mxCell>
        <mxCell id="gYdATXDG7kGbHXDYzB5d-1" value="" style="shape=actor;whiteSpace=wrap;html=1;" vertex="1" parent="1">
          <mxGeometry x="170" y="330" width="40" height="50" as="geometry" />
        </mxCell>
        <mxCell id="gYdATXDG7kGbHXDYzB5d-10" style="edgeStyle=orthogonalEdgeStyle;rounded=0;orthogonalLoop=1;jettySize=auto;html=1;" edge="1" parent="1" source="gYdATXDG7kGbHXDYzB5d-4" target="gYdATXDG7kGbHXDYzB5d-9">
          <mxGeometry relative="1" as="geometry" />
        </mxCell>
        <mxCell id="gYdATXDG7kGbHXDYzB5d-11" value="Produce &lt;br&gt;Message" style="edgeLabel;html=1;align=center;verticalAlign=middle;resizable=0;points=[];" vertex="1" connectable="0" parent="gYdATXDG7kGbHXDYzB5d-10">
          <mxGeometry x="-0.2571" y="-3" relative="1" as="geometry">
            <mxPoint x="10" y="-3" as="offset" />
          </mxGeometry>
        </mxCell>
        <mxCell id="gYdATXDG7kGbHXDYzB5d-4" value="Amazon S3" style="sketch=0;outlineConnect=0;fontColor=#232F3E;gradientColor=none;strokeColor=#ffffff;fillColor=#232F3E;dashed=0;verticalLabelPosition=middle;verticalAlign=bottom;align=center;html=1;whiteSpace=wrap;fontSize=10;fontStyle=1;spacing=3;shape=mxgraph.aws4.productIcon;prIcon=mxgraph.aws4.s3;" vertex="1" parent="1">
          <mxGeometry x="330" y="310" width="80" height="100" as="geometry" />
        </mxCell>
        <mxCell id="gYdATXDG7kGbHXDYzB5d-15" style="edgeStyle=orthogonalEdgeStyle;rounded=0;orthogonalLoop=1;jettySize=auto;html=1;" edge="1" parent="1" source="gYdATXDG7kGbHXDYzB5d-9" target="gYdATXDG7kGbHXDYzB5d-14">
          <mxGeometry relative="1" as="geometry" />
        </mxCell>
        <mxCell id="gYdATXDG7kGbHXDYzB5d-16" value="Consume&lt;br&gt;Message" style="edgeLabel;html=1;align=center;verticalAlign=middle;resizable=0;points=[];" vertex="1" connectable="0" parent="gYdATXDG7kGbHXDYzB5d-15">
          <mxGeometry x="0.0041" y="-2" relative="1" as="geometry">
            <mxPoint y="-2" as="offset" />
          </mxGeometry>
        </mxCell>
        <mxCell id="gYdATXDG7kGbHXDYzB5d-9" value="Amazon SQS" style="sketch=0;outlineConnect=0;fontColor=#232F3E;gradientColor=none;strokeColor=#ffffff;fillColor=#232F3E;dashed=0;verticalLabelPosition=middle;verticalAlign=bottom;align=center;html=1;whiteSpace=wrap;fontSize=10;fontStyle=1;spacing=3;shape=mxgraph.aws4.productIcon;prIcon=mxgraph.aws4.sqs;" vertex="1" parent="1">
          <mxGeometry x="490" y="310" width="80" height="100" as="geometry" />
        </mxCell>
        <mxCell id="gYdATXDG7kGbHXDYzB5d-22" style="edgeStyle=orthogonalEdgeStyle;rounded=0;orthogonalLoop=1;jettySize=auto;html=1;" edge="1" parent="1" source="gYdATXDG7kGbHXDYzB5d-14">
          <mxGeometry relative="1" as="geometry">
            <mxPoint x="820" y="360" as="targetPoint" />
          </mxGeometry>
        </mxCell>
        <mxCell id="gYdATXDG7kGbHXDYzB5d-14" value="AWS Lambda" style="sketch=0;outlineConnect=0;fontColor=#232F3E;gradientColor=none;strokeColor=#ffffff;fillColor=#232F3E;dashed=0;verticalLabelPosition=middle;verticalAlign=bottom;align=center;html=1;whiteSpace=wrap;fontSize=10;fontStyle=1;spacing=3;shape=mxgraph.aws4.productIcon;prIcon=mxgraph.aws4.lambda;" vertex="1" parent="1">
          <mxGeometry x="650" y="310" width="80" height="100" as="geometry" />
        </mxCell>
        <mxCell id="gYdATXDG7kGbHXDYzB5d-17" value="" style="shape=curlyBracket;whiteSpace=wrap;html=1;rounded=1;labelPosition=left;verticalLabelPosition=middle;align=right;verticalAlign=middle;rotation=90;" vertex="1" parent="1">
          <mxGeometry x="670" y="370" width="40" height="120" as="geometry" />
        </mxCell>
        <mxCell id="gYdATXDG7kGbHXDYzB5d-18" value="&lt;div align=&quot;center&quot;&gt;parse newly uploaded image for geo-data &amp;amp; push coord data + metadata to dynamodb&lt;/div&gt;" style="text;html=1;strokeColor=none;fillColor=none;align=center;verticalAlign=middle;whiteSpace=wrap;rounded=0;" vertex="1" parent="1">
          <mxGeometry x="630" y="460" width="120" height="40" as="geometry" />
        </mxCell>
        <mxCell id="gYdATXDG7kGbHXDYzB5d-24" style="edgeStyle=orthogonalEdgeStyle;rounded=0;orthogonalLoop=1;jettySize=auto;html=1;" edge="1" parent="1" source="gYdATXDG7kGbHXDYzB5d-20" target="gYdATXDG7kGbHXDYzB5d-23">
          <mxGeometry relative="1" as="geometry" />
        </mxCell>
        <mxCell id="gYdATXDG7kGbHXDYzB5d-25" value="Produce&lt;br&gt; Message" style="edgeLabel;html=1;align=center;verticalAlign=middle;resizable=0;points=[];" vertex="1" connectable="0" parent="gYdATXDG7kGbHXDYzB5d-24">
          <mxGeometry x="-0.1759" y="1" relative="1" as="geometry">
            <mxPoint as="offset" />
          </mxGeometry>
        </mxCell>
        <mxCell id="gYdATXDG7kGbHXDYzB5d-20" value="Amazon DynamoDB" style="sketch=0;outlineConnect=0;fontColor=#232F3E;gradientColor=none;strokeColor=#ffffff;fillColor=#232F3E;dashed=0;verticalLabelPosition=middle;verticalAlign=bottom;align=center;html=1;whiteSpace=wrap;fontSize=10;fontStyle=1;spacing=3;shape=mxgraph.aws4.productIcon;prIcon=mxgraph.aws4.dynamodb;" vertex="1" parent="1">
          <mxGeometry x="820" y="310" width="80" height="110" as="geometry" />
        </mxCell>
        <mxCell id="gYdATXDG7kGbHXDYzB5d-27" style="edgeStyle=orthogonalEdgeStyle;rounded=0;orthogonalLoop=1;jettySize=auto;html=1;" edge="1" parent="1" source="gYdATXDG7kGbHXDYzB5d-23" target="gYdATXDG7kGbHXDYzB5d-26">
          <mxGeometry relative="1" as="geometry" />
        </mxCell>
        <mxCell id="gYdATXDG7kGbHXDYzB5d-28" value="Consume&lt;br&gt; Message" style="edgeLabel;html=1;align=center;verticalAlign=middle;resizable=0;points=[];" vertex="1" connectable="0" parent="gYdATXDG7kGbHXDYzB5d-27">
          <mxGeometry x="-0.1524" y="3" relative="1" as="geometry">
            <mxPoint as="offset" />
          </mxGeometry>
        </mxCell>
        <mxCell id="gYdATXDG7kGbHXDYzB5d-23" value="Amazon SQS" style="sketch=0;outlineConnect=0;fontColor=#232F3E;gradientColor=none;strokeColor=#ffffff;fillColor=#232F3E;dashed=0;verticalLabelPosition=middle;verticalAlign=bottom;align=center;html=1;whiteSpace=wrap;fontSize=10;fontStyle=1;spacing=3;shape=mxgraph.aws4.productIcon;prIcon=mxgraph.aws4.sqs;" vertex="1" parent="1">
          <mxGeometry x="820" y="540" width="80" height="100" as="geometry" />
        </mxCell>
        <mxCell id="gYdATXDG7kGbHXDYzB5d-42" style="edgeStyle=orthogonalEdgeStyle;rounded=0;orthogonalLoop=1;jettySize=auto;html=1;" edge="1" parent="1" source="gYdATXDG7kGbHXDYzB5d-26" target="gYdATXDG7kGbHXDYzB5d-41">
          <mxGeometry relative="1" as="geometry" />
        </mxCell>
        <mxCell id="gYdATXDG7kGbHXDYzB5d-26" value="AWS Lambda" style="sketch=0;outlineConnect=0;fontColor=#232F3E;gradientColor=none;strokeColor=#ffffff;fillColor=#232F3E;dashed=0;verticalLabelPosition=middle;verticalAlign=bottom;align=center;html=1;whiteSpace=wrap;fontSize=10;fontStyle=1;spacing=3;shape=mxgraph.aws4.productIcon;prIcon=mxgraph.aws4.lambda;" vertex="1" parent="1">
          <mxGeometry x="620" y="540" width="80" height="100" as="geometry" />
        </mxCell>
        <mxCell id="gYdATXDG7kGbHXDYzB5d-38" style="edgeStyle=orthogonalEdgeStyle;rounded=0;orthogonalLoop=1;jettySize=auto;html=1;exitX=0;exitY=0.5;exitDx=0;exitDy=0;exitPerimeter=0;" edge="1" parent="1" source="gYdATXDG7kGbHXDYzB5d-29" target="gYdATXDG7kGbHXDYzB5d-26">
          <mxGeometry relative="1" as="geometry">
            <Array as="points">
              <mxPoint x="720" y="719" />
              <mxPoint x="720" y="720" />
              <mxPoint x="660" y="720" />
            </Array>
          </mxGeometry>
        </mxCell>
        <mxCell id="gYdATXDG7kGbHXDYzB5d-29" value="&lt;b&gt;Amazon Location&lt;br&gt;Service&lt;br&gt;&lt;/b&gt;" style="sketch=0;points=[[0,0,0],[0.25,0,0],[0.5,0,0],[0.75,0,0],[1,0,0],[0,1,0],[0.25,1,0],[0.5,1,0],[0.75,1,0],[1,1,0],[0,0.25,0],[0,0.5,0],[0,0.75,0],[1,0.25,0],[1,0.5,0],[1,0.75,0]];outlineConnect=0;fontColor=#232F3E;fillColor=#232F3E;strokeColor=#ffffff;dashed=0;verticalLabelPosition=bottom;verticalAlign=top;align=center;html=1;fontSize=12;fontStyle=0;aspect=fixed;shape=mxgraph.aws4.resourceIcon;resIcon=mxgraph.aws4.location_service;" vertex="1" parent="1">
          <mxGeometry x="681" y="680" width="78" height="78" as="geometry" />
        </mxCell>
        <mxCell id="gYdATXDG7kGbHXDYzB5d-31" value="" style="shape=curlyBracket;whiteSpace=wrap;html=1;rounded=1;flipH=1;labelPosition=right;verticalLabelPosition=middle;align=left;verticalAlign=middle;rotation=-90;" vertex="1" parent="1">
          <mxGeometry x="650" y="740" width="20" height="140" as="geometry" />
        </mxCell>
        <mxCell id="gYdATXDG7kGbHXDYzB5d-32" value="Parse new DynamoDB entry and verify against Amazon Location Service, check whether new entry is within geo fence, if within geofence fetch geofence owner email, go to SNS" style="text;html=1;strokeColor=none;fillColor=none;align=center;verticalAlign=middle;whiteSpace=wrap;rounded=0;" vertex="1" parent="1">
          <mxGeometry x="610" y="880" width="100" height="30" as="geometry" />
        </mxCell>
        <mxCell id="gYdATXDG7kGbHXDYzB5d-47" style="edgeStyle=orthogonalEdgeStyle;rounded=0;orthogonalLoop=1;jettySize=auto;html=1;" edge="1" parent="1" source="gYdATXDG7kGbHXDYzB5d-41" target="gYdATXDG7kGbHXDYzB5d-46">
          <mxGeometry relative="1" as="geometry" />
        </mxCell>
        <mxCell id="gYdATXDG7kGbHXDYzB5d-48" value="Send &lt;br&gt;Notification &lt;br&gt;to &lt;br&gt;Geofence &lt;br&gt;Owner" style="edgeLabel;html=1;align=center;verticalAlign=middle;resizable=0;points=[];" vertex="1" connectable="0" parent="gYdATXDG7kGbHXDYzB5d-47">
          <mxGeometry x="0.1191" y="1" relative="1" as="geometry">
            <mxPoint x="44" y="-1" as="offset" />
          </mxGeometry>
        </mxCell>
        <mxCell id="gYdATXDG7kGbHXDYzB5d-41" value="Amazon SNS" style="sketch=0;outlineConnect=0;fontColor=#232F3E;gradientColor=none;strokeColor=#ffffff;fillColor=#232F3E;dashed=0;verticalLabelPosition=middle;verticalAlign=bottom;align=center;html=1;whiteSpace=wrap;fontSize=10;fontStyle=1;spacing=3;shape=mxgraph.aws4.productIcon;prIcon=mxgraph.aws4.sns;" vertex="1" parent="1">
          <mxGeometry x="410" y="540" width="80" height="100" as="geometry" />
        </mxCell>
        <mxCell id="gYdATXDG7kGbHXDYzB5d-45" style="edgeStyle=orthogonalEdgeStyle;rounded=0;orthogonalLoop=1;jettySize=auto;html=1;" edge="1" parent="1" source="gYdATXDG7kGbHXDYzB5d-43" target="gYdATXDG7kGbHXDYzB5d-26">
          <mxGeometry relative="1" as="geometry">
            <Array as="points">
              <mxPoint x="660" y="720" />
            </Array>
          </mxGeometry>
        </mxCell>
        <mxCell id="gYdATXDG7kGbHXDYzB5d-43" value="Amazon DynamoDB" style="sketch=0;outlineConnect=0;fontColor=#232F3E;gradientColor=none;strokeColor=#ffffff;fillColor=#232F3E;dashed=0;verticalLabelPosition=middle;verticalAlign=bottom;align=center;html=1;whiteSpace=wrap;fontSize=10;fontStyle=1;spacing=3;shape=mxgraph.aws4.productIcon;prIcon=mxgraph.aws4.dynamodb;" vertex="1" parent="1">
          <mxGeometry x="561" y="680" width="80" height="110" as="geometry" />
        </mxCell>
        <mxCell id="gYdATXDG7kGbHXDYzB5d-46" value="" style="sketch=0;outlineConnect=0;fontColor=#232F3E;gradientColor=none;fillColor=#232F3D;strokeColor=none;dashed=0;verticalLabelPosition=bottom;verticalAlign=top;align=center;html=1;fontSize=12;fontStyle=0;aspect=fixed;pointerEvents=1;shape=mxgraph.aws4.email_2;" vertex="1" parent="1">
          <mxGeometry x="170" y="575" width="47.76" height="30" as="geometry" />
        </mxCell>
      </root>
    </mxGraphModel>
  </diagram>
</mxfile>
